<?xml version="1.0" encoding="UTF-8"?>
<svg width="224px" height="52px" viewBox="0 0 224 52" version="1.1" xmlns="http://www.w3.org/2000/svg" xmlns:xlink="http://www.w3.org/1999/xlink">
    <!-- Generator: Sketch 53.2 (72643) - https://sketchapp.com -->
    <title>performax-logo</title>
    <desc>Created with Sketch.</desc>
    <defs>
        <polygon id="path-1" points="0.190954123 0.217616125 57.0172888 0.217616125 57.0172888 51.3438346 0.190954123 51.3438346"></polygon>
    </defs>
    <g id="Page-1" stroke="none" stroke-width="1" fill="none" fill-rule="evenodd">
        <g id="Performax-2" transform="translate(-194.000000, -43.000000)">
            <g id="performax-logo" transform="translate(194.000000, 43.000000)">
                <g id="Group-26" transform="translate(64.104639, 9.143535)">
                    <path d="M0.411678052,8.58553843 C0.411678052,7.80785674 0.804076149,7.41997838 1.58887234,7.41997838 L7.47581507,7.41997838 C8.79578787,7.41997838 9.91082009,7.87089901 10.8204261,8.77177779 C11.7295464,9.67361905 12.1850779,10.7780618 12.1850779,12.0855873 L12.1850779,19.0861661 C12.1850779,20.3821419 11.7295464,21.4841784 10.8204261,22.3917945 C9.91082009,23.2984482 8.79578787,23.7522562 7.47581507,23.7522562 L2.76655227,23.7522562 L2.76655227,29.5858314 C2.76655227,30.363513 2.37415417,30.7518726 1.58887234,30.7518726 C0.804076149,30.7518726 0.411678052,30.363513 0.411678052,29.5858314 L0.411678052,8.58553843 Z M2.76655227,9.7525422 L2.76655227,21.4196924 L7.47581507,21.4196924 C8.12948813,21.4196924 8.68554732,21.1925478 9.14350698,20.7387397 C9.600981,20.2849317 9.83020365,19.7334321 9.83020365,19.0861661 L9.83020365,12.0855873 C9.83020365,11.4267715 9.60438048,10.8723846 9.15273416,10.4243514 C8.7006022,9.97631818 8.14162916,9.7525422 7.47581507,9.7525422 L2.76655227,9.7525422 Z" id="Fill-13" fill="#242335"></path>
                    <path d="M17.422524,16.7530248 L17.422524,19.0860699 C17.422524,19.7222674 17.6546605,20.2708795 18.1179622,20.7304624 C18.5817496,21.1890829 19.1348949,21.4195962 19.7769126,21.4195962 L25.6633697,21.4195962 C26.4486515,21.4195962 26.840564,21.8074745 26.840564,22.5851562 C26.840564,23.3633192 26.4486515,23.75216 25.6633697,23.75216 L19.7769126,23.75216 C18.4569398,23.75216 17.3423932,23.3017206 16.4323016,22.4003606 C15.5226956,21.4985193 15.0676498,20.3940766 15.0676498,19.0860699 L15.0676498,13.252976 C15.0676498,11.6389015 15.6416777,10.2625589 16.7887623,9.12539197 C17.9368181,7.988225 19.3247807,7.41988213 20.9545925,7.41988213 C22.6067439,7.41988213 24.0015055,7.98245013 25.1374203,9.10806737 C26.2728494,10.2327221 26.840564,11.6143583 26.840564,13.252976 L26.840564,16.7530248 L17.422524,16.7530248 Z M20.9545925,9.75244595 C19.979425,9.75244595 19.1465503,10.0950879 18.4569398,10.7779655 C17.7673293,11.4613245 17.422524,12.2861675 17.422524,13.252976 L17.422524,14.4190173 L24.4866611,14.4190173 L24.4866611,13.252976 C24.4866611,12.2861675 24.1413702,11.4613245 23.4517596,10.7779655 C22.7616635,10.0950879 21.9292745,9.75244595 20.9545925,9.75244595 L20.9545925,9.75244595 Z" id="Fill-15" fill="#242335"></path>
                    <path d="M29.7230388,8.58553843 C29.7230388,7.80785674 30.1154369,7.41997838 30.9002331,7.41997838 L37.9638845,7.41997838 C38.749652,7.41997838 39.1415644,7.80785674 39.1415644,8.58553843 L39.1415644,10.919546 C39.1415644,11.6977089 38.749652,12.0855873 37.9638845,12.0855873 C37.1790883,12.0855873 36.7866902,11.6977089 36.7866902,10.919546 L36.7866902,9.7525422 L32.077913,9.7525422 L32.077913,22.5852525 C32.077913,23.3634154 31.6855149,23.7522562 30.9002331,23.7522562 C30.1154369,23.7522562 29.7230388,23.3634154 29.7230388,22.5852525 L29.7230388,8.58553843 Z" id="Fill-16" fill="#242335"></path>
                    <path d="M43.2380451,7.41978588 L44.4157251,7.41978588 L44.4157251,5.08674083 C44.4157251,3.77777166 44.8731991,2.67332892 45.7891184,1.77245013 C46.7050377,0.870608872 47.8166704,0.419207002 49.1249879,0.419207002 L50.3021821,0.419207002 C51.087464,0.419207002 51.4798621,0.808529084 51.4798621,1.58621077 C51.4798621,2.36389245 51.087464,2.75321453 50.3021821,2.75321453 L49.1249879,2.75321453 C48.4708292,2.75321453 47.9142843,2.97987795 47.4568103,3.43368601 C46.9993363,3.88749407 46.7701136,4.43803111 46.7701136,5.08674083 L46.7701136,7.41978588 L50.3021821,7.41978588 C51.087464,7.41978588 51.4798621,7.80814549 51.4798621,8.58534593 C51.4798621,9.36447133 51.087464,9.75283094 50.3021821,9.75283094 L46.7701136,9.75283094 L46.7701136,22.58506 C46.7701136,23.3632229 46.3777155,23.752545 45.5929194,23.752545 C44.8081232,23.752545 44.4157251,23.3632229 44.4157251,22.58506 L44.4157251,9.75283094 L43.2380451,9.75283094 C42.4532489,9.75283094 42.0608508,9.36447133 42.0608508,8.58534593 C42.0608508,7.80814549 42.4532489,7.41978588 43.2380451,7.41978588" id="Fill-17" fill="#242335"></path>
                    <path d="M54.3989057,17.9192586 L54.3989057,13.2526873 C54.3989057,11.6386128 54.972448,10.2622702 56.1200181,9.12558446 C57.2675883,7.98793625 58.6560365,7.41959339 60.2853628,7.41959339 C61.9384854,7.41959339 63.3327614,7.98216139 64.4686761,9.10777863 C65.6041053,10.2329146 66.1723055,11.6145508 66.1723055,13.2526873 L66.1723055,17.9192586 C66.1723055,19.5342956 65.5982776,20.9096757 64.4507074,22.0463614 C63.3026516,23.1840096 61.914689,23.7523525 60.2853628,23.7523525 C58.6560365,23.7523525 57.2675883,23.1840096 56.1200181,22.0463614 C54.972448,20.9096757 54.3989057,19.5342956 54.3989057,17.9192586 M63.8174313,17.9192586 L63.8174313,13.2526873 C63.8174313,12.28636 63.472626,11.4615169 62.7825299,10.778158 C62.0929194,10.0947991 61.2605303,9.75263844 60.2853628,9.75263844 C59.3106809,9.75263844 58.4778062,10.0947991 57.78771,10.778158 C57.0985852,11.4615169 56.7537799,12.28636 56.7537799,13.2526873 L56.7537799,17.9192586 C56.7537799,18.8971356 57.0951857,19.7253473 57.7794541,20.4024501 C58.4627513,21.0800342 59.2985398,21.4193074 60.2853628,21.4193074 C61.2605303,21.4193074 62.0929194,21.0771467 62.7825299,20.3942691 C63.472626,19.7104289 63.8174313,18.8860671 63.8174313,17.9192586" id="Fill-18" fill="#242335"></path>
                    <path d="M69.0542947,8.58553843 C69.0542947,7.80785674 69.4466928,7.41997838 70.2310033,7.41997838 L77.2951404,7.41997838 C78.0809078,7.41997838 78.4728203,7.80785674 78.4728203,8.58553843 L78.4728203,10.919546 C78.4728203,11.6977089 78.0809078,12.0855873 77.2951404,12.0855873 C76.5108298,12.0855873 76.1179461,11.6977089 76.1179461,10.919546 L76.1179461,9.7525422 L71.4091689,9.7525422 L71.4091689,22.5852525 C71.4091689,23.3634154 71.0167708,23.7522562 70.2310033,23.7522562 C69.4466928,23.7522562 69.0542947,23.3634154 69.0542947,22.5852525 L69.0542947,8.58553843 Z" id="Fill-19" fill="#242335"></path>
                    <path d="M82.569301,7.41978588 L93.1655065,7.41978588 C94.485965,7.41978588 95.6000259,7.87070651 96.5096319,8.77206654 C97.4202091,9.6739078 97.875255,10.7778693 97.875255,12.085876 L97.875255,22.58506 C97.875255,23.3632229 97.4823712,23.752545 96.6970894,23.752545 C95.9122932,23.752545 95.5189238,23.3632229 95.5189238,22.58506 L95.5189238,12.085876 C95.5189238,11.426579 95.2935863,10.8726733 94.8429113,10.4241589 C94.3893224,9.97660692 93.830835,9.75283094 93.1655065,9.75283094 L90.8101467,9.75283094 L90.8101467,22.58506 C90.8101467,23.3632229 90.4187198,23.752545 89.6339237,23.752545 C88.8476705,23.752545 88.4562437,23.3632229 88.4562437,22.58506 L88.4562437,9.75283094 L83.7469809,9.75283094 L83.7469809,22.58506 C83.7469809,23.3632229 83.3550685,23.752545 82.569301,23.752545 C81.7845048,23.752545 81.3925924,23.3632229 81.3925924,22.58506 L81.3925924,8.58534593 C81.3925924,7.80814549 81.7845048,7.41978588 82.569301,7.41978588" id="Fill-20" fill="#242335"></path>
                    <path d="M105.466118,23.7523044 C104.14566,23.7523044 103.031113,23.301865 102.121993,22.400505 C101.212387,21.4986637 100.756856,20.394221 100.756856,19.0862143 C100.756856,18.2373092 100.965681,17.4533715 101.381876,16.7348821 C102.272542,15.1910685 103.634765,14.4191617 105.466118,14.4191617 L110.175381,14.4191617 L110.175381,12.0856354 C110.175381,11.4268196 109.949072,10.8724327 109.498397,10.4243995 C109.045294,9.9763663 108.487292,9.75259032 107.820507,9.75259032 L103.11173,9.75259032 C102.327419,9.75259032 101.93405,9.36423072 101.93405,8.58558655 C101.93405,7.80790487 102.327419,7.41954526 103.11173,7.41954526 L107.820507,7.41954526 C109.14048,7.41954526 110.256483,7.87094713 111.165118,8.77182592 C112.076181,9.67366718 112.531712,10.7781099 112.531712,12.0856354 L112.531712,22.5853006 C112.531712,23.3634635 112.138343,23.7523044 111.352576,23.7523044 L105.466118,23.7523044 Z M110.175381,16.7531692 L105.466118,16.7531692 C104.812931,16.7531692 104.256386,16.9793514 103.798427,17.4331594 C103.339981,17.8869675 103.11173,18.4375045 103.11173,19.0862143 C103.11173,19.7224118 103.343866,20.2710239 103.807654,20.7301255 C104.270955,21.1892272 104.824101,21.4192593 105.466118,21.4192593 L110.175381,21.4192593 L110.175381,16.7531692 Z" id="Fill-21" fill="#242335"></path>
                    <path d="M122.720999,15.5860211 L126.990271,21.9321154 C127.120423,22.1327919 127.186956,22.3503118 127.186956,22.5851562 C127.186956,23.3633192 126.7965,23.75216 126.014618,23.75216 C125.586282,23.75216 125.261388,23.5798766 125.036051,23.233866 L121.305355,17.689034 L117.570774,23.2401221 C117.345437,23.5818015 117.0186,23.75216 116.59075,23.75216 C116.269741,23.75216 115.992926,23.6381064 115.762246,23.4085556 C115.528653,23.1799672 115.413556,22.9061424 115.413556,22.5894874 C115.413556,22.3551241 115.482031,22.1376043 115.618011,21.9378902 L119.891653,15.5860211 L115.618011,9.2341519 C115.482031,9.0349191 115.413556,8.81739922 115.413556,8.58255475 C115.413556,7.80727926 115.804497,7.41988213 116.59075,7.41988213 C117.0186,7.41988213 117.345437,7.5912031 117.570774,7.93432627 L121.305355,13.4830081 L125.036051,7.93817618 C125.261388,7.59216557 125.586282,7.41988213 126.014618,7.41988213 C126.7965,7.41988213 127.186956,7.80246687 127.186956,8.56859883 C127.186956,8.8159555 127.120423,9.03925024 126.990271,9.24040801 L122.720999,15.5860211 Z" id="Fill-22" fill="#242335"></path>
                    <path d="M130.069576,21.4194999 C130.069576,20.641337 130.461003,20.2524962 131.245799,20.2524962 C132.032052,20.2524962 132.423479,20.641337 132.423479,21.4194999 L132.423479,22.58506 C132.423479,23.3632229 132.032052,23.752545 131.245799,23.752545 C130.461003,23.752545 130.069576,23.3632229 130.069576,22.58506 L130.069576,21.4194999 Z" id="Fill-23" fill="#F03233"></path>
                    <path d="M137.661314,12.0857797 L137.661314,19.0863586 C137.661314,19.7220749 137.892965,20.270687 138.355781,20.7302699 C138.820539,21.1888904 139.372228,21.4194037 140.014245,21.4194037 L143.5468,21.4194037 C144.333053,21.4194037 144.725936,21.8077633 144.725936,22.585445 C144.725936,23.3631267 144.333053,23.7524487 143.5468,23.7524487 L140.014245,23.7524487 C138.696215,23.7524487 137.581183,23.3015281 136.671577,22.4001681 C135.761,21.4988081 135.305954,20.3938841 135.305954,19.0863586 L135.305954,12.0857797 C135.305954,10.7777731 135.761,9.67381155 136.671577,8.77197029 C137.581183,7.87061027 138.696215,7.41968964 140.014245,7.41968964 L143.5468,7.41968964 C144.333053,7.41968964 144.725936,7.80804924 144.725936,8.58573092 C144.725936,9.36437509 144.333053,9.75273469 143.5468,9.75273469 L140.014245,9.75273469 C139.361058,9.75273469 138.804999,9.98036058 138.347525,10.4332062 C137.88908,10.8870142 137.661314,11.4385137 137.661314,12.0857797" id="Fill-24" fill="#242335"></path>
                    <path d="M156.045845,9.75259032 L148.823388,9.75259032 C148.038107,9.75259032 147.642795,9.36423072 147.642795,8.58558655 C147.642795,7.80790487 148.035678,7.41954526 148.821932,7.41954526 L158.239972,7.41954526 C159.025253,7.41954526 159.41668,7.81464221 159.41668,8.60435486 C159.41668,8.8276496 159.340434,9.05768169 159.185029,9.29300739 L151.033056,21.4192593 L158.239972,21.4192593 C159.025253,21.4192593 159.41668,21.8076189 159.41668,22.5853006 C159.41668,23.3634635 159.025253,23.7523044 158.239972,23.7523044 L148.821932,23.7523044 C148.035678,23.7523044 147.642795,23.3711633 147.642795,22.6084001 C147.642795,22.3620059 147.724868,22.1218678 147.888529,21.8865421 L156.045845,9.75259032 Z" id="Fill-25" fill="#242335"></path>
                </g>
                <g id="Group-29">
                    <mask id="mask-2" fill="white">
                        <use xlink:href="#path-1"></use>
                    </mask>
                    <g id="Clip-28"></g>
                    <path d="M31.5172403,51.422854 C30.9699226,51.422854 30.4920517,51.0513377 30.3628711,50.5219752 L19.6549681,6.6431148 L14.0521255,32.0323044 C13.9326578,32.5727354 13.4494448,32.9582076 12.8909574,32.9582076 L1.37883252,32.9582076 C0.722731246,32.9582076 0.190954123,32.43077 0.190954123,31.7806165 C0.190954123,31.1304631 0.722731246,30.6030255 1.37883252,30.6030255 L11.9342442,30.6030255 L18.435523,1.14400056 C18.5540195,0.607900683 19.0299479,0.223872228 19.5835789,0.218097364 C19.5879496,0.217616125 19.5923204,0.217616125 19.5966912,0.217616125 C20.1449801,0.217616125 20.6223654,0.589613614 20.751546,1.11849491 L31.4036002,44.7682857 L36.9068864,17.2207407 C37.0064428,16.7231399 37.1880727,16.5027326 37.6960534,16.4401716 C38.2035484,16.3809792 38.3681808,16.9897461 38.4657947,17.1783917 L44.932593,30.6030255 L55.8289248,30.6030255 C56.4850261,30.6030255 57.0172888,31.1304631 57.0172888,31.7806165 C57.0172888,32.43077 56.4850261,32.9582076 55.8289248,32.9582076 L44.1832486,32.9582076 C43.725289,32.9582076 43.3086088,32.6973762 43.1109528,32.2883233 L38.3196167,22.3430451 L32.6832648,50.4743325 C32.5744812,51.0166885 32.0995241,51.4113042 31.542008,51.4223727 C31.5342377,51.4223727 31.5254962,51.422854 31.5172403,51.422854" id="Fill-27" fill="#F03233" mask="url(#mask-2)"></path>
                </g>
            </g>
        </g>
    </g>
</svg>